<?xml version="1.0" encoding="utf-8"?>
<!-- Generator: Adobe Illustrator 15.1.0, SVG Export Plug-In . SVG Version: 6.00 Build 0)  -->
<!DOCTYPE svg PUBLIC "-//W3C//DTD SVG 1.1//EN" "http://www.w3.org/Graphics/SVG/1.1/DTD/svg11.dtd">
<svg version="1.1" xmlns="http://www.w3.org/2000/svg" xmlns:xlink="http://www.w3.org/1999/xlink" x="0px" y="0px" width="800px"
	 height="800px" viewBox="0 0 800 800" enable-background="new 0 0 800 800" xml:space="preserve">
<g id="Layer_2">
	<path fill-rule="evenodd" clip-rule="evenodd" fill="#FFFFFF" d="M261.146,553.489c-8.323,10.584,0.989-3.976,8.24,11.979
		c77.364-60.51,181.451-91.797,277.187-0.093C777,184,670.335,650.439,670.335,650.439s40.999-73.772,43.999-109.106
		c8.095-33.407,10.827-89.24,13-130.237c1.249-23.574-3.901-62.59-10.709-84.938c-5.552-18.225-34.958-90.916-80.692-117.813
		c-9.99-5.875-43.018-17.276-43.018-17.276l-310.709,8.157l-17.268,24.979c0,0-0.125,15.375,0,20.499
		c0.587,23.982,5.982,55.27,5.982,55.27s-6.991-6.17-2.562,21.331c4.903,12.278,17.66,0.787,11.684,11.868
		c-6.079,11.271-6.473,28.433-6.473,28.433s-10.858,41.548-18.341,53.562c-17.753,28.503-5.346,17.855-66.978,71.086
		C232,454.251,329.75,466.25,261.146,553.489z"/>
	<path fill-rule="evenodd" clip-rule="evenodd" fill="#FFFFFF" d="M261.146,553.489"/>
	<path fill-rule="evenodd" clip-rule="evenodd" fill="#FFFFFF" d="M255.228,415.164c-17.753,28.503-33.195,47.178-70.69,69.162"/>
</g>
<g id="Layer_1">
	<g>
		<path fill-rule="evenodd" clip-rule="evenodd" fill="none" stroke="#000000" stroke-miterlimit="10" d="M293.036,371.717"/>
		<path fill-rule="evenodd" clip-rule="evenodd" fill="#F2F2F2" d="M728.901,411.096c1.795,4.344,1.795,16.154,0,20.499
			C728.901,424.762,728.901,417.928,728.901,411.096z"/>
		<path fill-rule="evenodd" clip-rule="evenodd" d="M545.493,392.755c-10.904-7.795-19.754-17.647-28.051-28.051
			c9.697,8.643,16.854,19.828,28.051,26.972C545.493,392.035,545.493,392.396,545.493,392.755z"/>
		<path fill-rule="evenodd" clip-rule="evenodd" d="M553.045,206.11c16.879,3.45,39.939,10.253,57.181,15.104
			c3.954,1.113,15.671,6.124,19.42,5.395c12.99-2.527,6.215-17.369,0-23.735c-16.018-16.407-51.311-35.13-75.521-42.076
			c-28.393-8.145-77.213-11.39-115.439-9.71c-80.785,3.552-149.608,17.346-172.62,69.048c0,0.719,0,1.438,0,2.158
			c-5.056,2.772-1.274-7.148,0-10.789c3.463-9.896,17.127-24.391,24.814-30.208c34.083-25.798,127.986-39.5,195.276-34.524
			c23.016,1.702,45.364,2.653,64.221,7.562c51.219,13.333,95.374,53.771,124.582,89.537c36.279,44.426,54.875,92.854,53.943,167.226
			c0,6.832,0,13.666,0,20.499c-2.126,12.258-2.016,26.753-4.315,38.839c-0.359,0-0.72,0-1.079,0c1.098-25.517,2.288-56.688,0-81.994
			c-2.357-73.883-30.487-121.993-67.969-160.752c-3.145-4.048-6.741-7.644-10.788-10.789c-0.604-1.554-1.683-2.632-3.237-3.237
			c-0.672,5.893-3.12,17.639-10.788,17.262c17.063,37.958,49.375,70.02,51.785,126.228c-5.396,13.709-47.334,25.665-51.785,6.474
			c-2.43-10.475,7.021-15.767,4.315-29.13c0-24.814,0.354-15.479,0-24.814c-0.996-36.765-12.717-62.804-28.051-85.231
			c-18.563-3.734-34.769-9.825-53.944-12.947c-5.067-1.111-2.874,5.038-7.552,4.315c-0.804-3.321,2.962-2.073,2.157-5.394
			c-6.62-1.945-3.464,5.886-8.631,5.394c-0.782-3.3,1.862-3.173,1.079-6.473c-1.438,0-2.877,0-4.315,0
			c-4.498-1.659-6.91-1.289-10.789,0c-20.082,9.797-54.782,27.563-43.154,58.259c3.825,10.1,12.901,14.378,21.577,21.578
			c1.56,3.116,5.188,4.163,7.552,6.473c1.5,5.334,7.251,6.414,10.789,9.71c-2.035,1.919-4.775,3.135-4.315,7.552
			c15.135,42.764,44.188,71.61,76.6,97.099c0.206,0.874,1.082,1.076,1.079,2.158c-19.336-9.075-33.805-23.016-47.471-37.761
			c10.937,22.148,26.683,39.488,45.313,53.943c-0.576,1.555-1.608-1.262,1.078,3.237c-17.296-11.833-33.122-25.137-48.549-38.84
			c0-0.359,0-0.72,0-1.079c-11.196-7.144-18.354-18.329-28.051-26.972c-19.087-25.506-39.779-49.408-46.392-87.389
			c0-3.597,0-7.192,0-10.789c0.877-9.553,4.279-16.579,7.552-23.735c10.518-17.219,37.814-43.49,62.575-37.761L553.045,206.11z"/>
		<path fill-rule="evenodd" clip-rule="evenodd" d="M610.5,222.667c3.954,1.113,16.084,5.896,19.833,5.167
			c12.99-2.527,7.049-18.301,0.834-24.667c-16.018-16.407-52.832-35.424-77.043-42.37c-28.393-8.145-77.213-11.39-115.439-9.71
			c-80.785,3.552-149.608,17.346-172.62,69.048c0.719,0,1.438,0,2.158,0c13.933-11.428,14.527,25.24,26.972,35.603
			C303,254.125,313.25,256,319.5,263.5c7.75-5.545,22.123-23.577,22.123-23.577c4.127-6.923,43.593-27.313,65.877-15.411
			c6.204,5.304,10.838,14.445,18.238,17.889c11.982,5.575,41.168,6.543,52.864,0.391c19.21-10.104,37.97-42.188,62.73-36.458
			L610.5,222.667z"/>
		<path fill-rule="evenodd" clip-rule="evenodd" d="M285.592,382.001c-3.391-2.164-7.719,0.139-7.854,4.026
			c-7.871,12.73-16.329,24.86-25.526,36.231c-5.973,5.282-11.536,10.987-16.69,17.109c-4.445,4.502-9.984,7.883-13.745,13.084
			c-1.731,0.909-3.04,2.252-3.927,4.025c29.216-10.895,69.176-5.328,70.688,26.168c0.777,16.212-8.466,29.134-16.69,40.258
			c-0.795,0.191-0.978,1.01-1.964,1.007c5.258-9.371,11.491-17.742,13.745-30.193c1.632-3.055,1.632-13.049,0-16.103
			c-5.532-27.94-47.166-27.813-70.687-16.104c-9.877,4.918-15.555,13.75-25.525,15.098c-4.141,0.171,0.016-1.546,0-3.019
			c-2.849,0.769-5.647,1.591-6.874,4.025c-3.274-0.004-3.351,3.272-6.872,3.02c18.732-14.011,42.449-22.91,55.96-42.271
			c3.494-3.799,8.644-5.901,10.799-11.07c31.445-27.816,44.195-74.797,52.034-126.813c1.635-10.072,1.635-27.167,0-37.238
			c-0.725-20.727-2.634-40.241-20.617-43.277c12.679-10.661,24.468,17.047,24.543,33.212c-0.471,11.889,4.681,18.015,3.928,30.193
			c7.605-8.977,13.275-19.939,21.599-28.18l14.594-17.568c12.657-14.442,42.687-25.741,62.966-14.638
			c4.826,5.789,10.061,11.156,15.708,16.104c1.877,2.772,4.168,5.12,6.871,7.044c22.669,25.407,37.75,58.592,48.107,96.619
			c0,1.677,0,3.355,0,5.032c-17.247-47.069-38.002-90.539-71.67-120.773c-23.155-9.907-49.844,1.305-60.869,16.104
			c-4.145,3.467-7.114,8.14-10.799,12.077c-5.895,5.699-11.003,12.205-15.709,19.122c-2.218,3.094-4.962,5.649-5.89,10.065
			c-11.625,23.067-19.599,54.927-15.708,90.58c0.542,1.792,0.504,4.18,1.963,5.032c2.463-8.159,2.953-14.441,2.945-19.122
			c0-0.336,0-0.671,0-1.006c2.884-8.784,3.037-20.371,10.799-24.155c4.693,15.609,2.644,33.151,16.69,37.238
			c9.677,2.816,25.74-8.685,32.399,5.032c-0.074,3.615,0.794,8.196-1.964,9.058c0.954,4.054,4.289,5.667,6.872,8.051
			c31.65,12.195,73.457,1.6,107.013-2.013c3.306-0.637,5.035-2.891,9.817-2.013c23.781,2.124,43.369,8.547,57.925,20.129
			c0.435,0.896,0.863,1.8,1.964,2.014c-7.98,0.454-15.487-5.635-24.545-7.231c-8.544-11.391-42.57-11.572-57.753-8.864
			c-16.193,1.908-31.55,7.748-50.241,8.042c-5.236,0-10.472,0-15.708,0c-17.625-0.719-32.004-4.764-40.253-15.096
			c-8.405,7.151-13.833,17.355-17.672,29.187c7.254,5.276,16.122,19.304,27.49,21.135c8.8,1.417,24.83-4.36,39.27-5.032
			c14.722-0.687,30.329-0.201,42.216,1.007c1.31,0,2.619,0,3.927,0c0.305,1.366,2.459,0.835,3.928,1.006
			c-2.014,2.969-10.749-0.955-12.763,2.013c-11.13,0.668-24.865-1.336-34.361,1.007c-13.048-0.627-22.886,2.036-34.363,3.019
			c-4.254,0-8.508,0-12.763,0c-6.569-8.026-18.224-10.838-24.544-19.121c-3.836,9.04-4.596,29.004-3.927,35.226
			C295.5,450.845,287.5,392.755,285.592,382.001z M283.628,371.937c-0.816,2.519-2.689,3.952-2.945,7.045
			c1.426-0.551,5.074,1.176,4.908-1.007C282.813,378.141,286.408,371.772,283.628,371.937z"/>
		<path fill-rule="evenodd" clip-rule="evenodd" d="M527.152,220.135c-16.938,8.955-29.938,21.847-35.603,42.076
			c-2.862-0.344,1.009,6.044-3.237,4.316c0.012-2.866-0.407-6.162,1.079-7.552c5.77-19.764,18.089-32.978,35.603-40.997
			c1.079,0,2.158,0,3.237,0C528.234,219.06,527.357,219.261,527.152,220.135z"/>
		<path fill-rule="evenodd" clip-rule="evenodd" d="M584.333,303.208c-6.129,1.694-7.369-0.289-14.025,0
			c-29.303-6.661-42.816-29.11-74.442-33.445c-1.286-2.978-3.063-3.787-1.079-7.552c12.944-21.579,31.047-38.839,59.338-44.233
			c3.626-0.605,9.126-0.605,11.868,0c18.588,6.585,30.721,19.625,33.444,42.076c0.594,5.385,0.688,9.509,0,14.025
			c-1.698,10.169-6.097,17.638-11.867,23.735c23.301-7.996,22.167-51.17,5.395-65.812c2.472-3.772,2.998,3.374,5.394,3.237
			c10.667,11.264,17.564,38.718,5.395,52.865C599.741,292.767,590.261,301.57,584.333,303.208z M523.916,248.186
			c11.703,0.468,23.6-7.982,30.208-16.183C537.334,230.676,527.98,236.787,523.916,248.186z"/>
		<path fill-rule="evenodd" clip-rule="evenodd" d="M592.964,232.002c-0.483-2.119-6.36-6.471-4.315-7.552
			c3.78,3.052,8.41,6.929,10.504,11.667"/>
		<path fill-rule="evenodd" clip-rule="evenodd" d="M274.696,325.865c-10.663-3.434-7.77-13.571-8.631-22.656
			c-0.564-5.949-3.638-12.469-4.315-19.42c-1.247-12.776,4.094-25.937,3.236-35.603c-0.823-9.279-9.447-11.981-11.868-18.341
			c4.432,0.243,6.674,2.676,8.631,5.395c2.672-1.644,1.928-6.703,6.473-6.473c0.767,5.442-3.318,6.032-2.158,11.868
			c4.158,3.754,9.947,5.876,14.025,9.71c-0.207-6.627-4.245-9.422-5.395-15.104c11.97,5.651,11.855,23.389,14.025,38.839
			c0,2.158,0,4.315,0,6.473c0,5.395,0,10.789,0,16.184c0,1.079,0,2.158,0,3.236c-0.687,9.742-2.352,18.507-6.473,24.814
			c-4.322,1.949,0.296-0.331,0-3.236c2.603-5.668,2.211-14.332,2.158-22.656c-12.845-1.819-24.385,16.157-8.631,23.735
			c0.029,1.049,1.32,0.837,2.158,1.079C277.461,325.034,276.552,325.923,274.696,325.865z M270.38,255.738
			c-3.471,0.718-5.071,9.478,0,9.71C274.575,266.091,275.495,254.813,270.38,255.738z"/>
		<path fill-rule="evenodd" clip-rule="evenodd" d="M318.973,268.28c14.153-16.46,40.896-18.264,52.033,0
			c8.87,14.546,13.153,31.924,24.545,46.303c11.694,14.763,22.883,23.55,43.196,27.178c0.857,1.775,3.288,3.117,0,4.026
			c-28.487-4.072-45.771-21.68-57.923-44.29c-8.709-16.203-11.306-46.695-36.326-44.29c-11.205,1.078-17.611,12.279-26.508,18.119
			c-3.683,1.616-6.956,8.94-9.817,8.053c0.598-0.057,1.163-0.15,0.982-1.006c0.915-2.753,3.013-4.293,3.926-7.046
			C315.917,273.872,316.871,270.486,318.973,268.28z"/>
		<path fill-rule="evenodd" clip-rule="evenodd" fill="#F2F2F2" d="M419.265,279.473c-7.168,2.115-14.599-4.808-17.262-10.789
			C409.524,270.513,415.667,273.721,419.265,279.473z"/>
		<path fill-rule="evenodd" clip-rule="evenodd" d="M267.144,367.941c-7.082,5.146-11.249,13.206-18.341,18.341
			c-2.22-6.588,20.106-23.15,25.893-33.445C277.625,359.028,268.348,362.292,267.144,367.941z"/>
		<path fill-rule="evenodd" clip-rule="evenodd" d="M477.037,355.853c22.244,22.489,50.692,38.619,74.613,59.388
			c-3.927,0-2.098-0.962-3.927,0c-11.738-6.628-22.847-15.911-36.325-26.171C499.075,379.688,480.55,369.963,477.037,355.853z"/>
		<path fill-rule="evenodd" clip-rule="evenodd" d="M249.882,403.544c6.417-5.452,10.954-12.781,14.025-21.578
			c0.696,17.243-15.174,27.259-25.893,36.681c-0.951-3.145,6.898-6.74,8.631-10.788
			C246.963,405.659,249.564,405.743,249.882,403.544z"/>
		<path fill-rule="evenodd" clip-rule="evenodd" d="M609.146,427.279c-30.771,35.4-56.933,75.408-62.574,135.938
			c-0.359,0-0.72,0-1.079,0c0-3.596,0-7.192,0-10.789c4.45-52.37,29.813-83.633,52.34-117.928
			c1.856,0.058,23.501-26.641,33.167-34.193c10.285-7.552,15.136-12.998,25.617-17.262c0.918-0.198,1.018,0.42,1.079,1.079
			c-14.797,9.658-28.282,20.628-39.919,33.445"/>
		<path fill-rule="evenodd" clip-rule="evenodd" d="M275.265,532.685C390.75,504.958,448,500.75,528.231,548.112
			c-45.796-31.986-82.014-40.596-121.479-39.892C366.021,508.947,340.25,512,275.265,532.685z"/>
		<path fill-rule="evenodd" clip-rule="evenodd" d="M524.994,217.978c0.03-1.05,1.32-0.837,2.158-1.079
			c2.961-0.159,5.563-0.201,3.236,2.158c-0.867,0.571-1.751,1.126-3.236,1.079"/>
		<path fill-rule="evenodd" clip-rule="evenodd" d="M255.276,221.214c2.689,2.705,7.729,3.06,10.789,5.395
			c-2.329,2.951-7.468-0.372-9.71-1.079c-0.976-1.9-3.972-1.783-4.315-4.315C253.118,221.214,254.197,221.214,255.276,221.214z"/>
		<path fill-rule="evenodd" clip-rule="evenodd" d="M599.437,274.079c0-4.675,0-9.35,0-14.025"/>
		<path fill-rule="evenodd" clip-rule="evenodd" d="M426.968,288.412c-9.666,9.199-28.851,1.497-34.363-6.04
			c-1.814-2.502-1.425-4.674-4.347-6.04c0-1.342-1.543-3.69-1.543-5.033c8.789,5.752,12.447,16.766,26.507,17.112"/>
		<path fill-rule="evenodd" clip-rule="evenodd" fill="#9D9D9D" d="M434.369,293.499"/>
		<path fill-rule="evenodd" clip-rule="evenodd" fill="#9D9D9D" d="M423.58,293.499"/>
		<path fill-rule="evenodd" clip-rule="evenodd" fill="#363636" d="M288.721,296.735c0-5.395,0-10.789,0-16.184"/>
		<path fill-rule="evenodd" clip-rule="evenodd" d="M584.333,303.208"/>
		<path fill-rule="evenodd" clip-rule="evenodd" d="M570.308,303.208"/>
		<path fill-rule="evenodd" clip-rule="evenodd" fill="#CACACA" d="M567.07,333.417c5.035,0,10.069,0,15.104,0"/>
		<path fill-rule="evenodd" clip-rule="evenodd" d="M264.986,333.417c7.318,0.484,10.778-2.888,16.183-4.315
			c-0.32,6.872-7.054,7.331-14.025,7.552c-3.956,0-7.912,0-11.867,0c-2.6,0.441-2.346-1.97-5.395-1.079
			C252.447,332.386,262.42,336.605,264.986,333.417z"/>
		<path fill-rule="evenodd" clip-rule="evenodd" fill="#363636" d="M255.276,336.653c3.956,0,7.912,0,11.867,0"/>
		<path fill-rule="evenodd" clip-rule="evenodd" d="M241.251,365.783c13.225-8.713,25.295-18.579,37.76-28.051
			c-7.151,14.426-22.864,20.291-35.603,29.129C242.571,366.62,241.28,366.833,241.251,365.783z"/>
		<path fill-rule="evenodd" clip-rule="evenodd" d="M577.859,348.521c3.956,0,7.911,0,11.867,0"/>
		<path fill-rule="evenodd" clip-rule="evenodd" d="M478.018,443.425c-17.912-10.603-2.116-45.685,16.691-40.263
			c-6.086,2.819-12.147,5.664-15.708,11.072C472.332,420.924,471.523,435.984,478.018,443.425z"/>
		<path fill-rule="evenodd" clip-rule="evenodd" d="M453.476,438.362c13.387,3.051,21.641,11.363,29.452,20.129
			c-0.401,2.425,1.792,2.188,0.982,5.032c-10.823-7.693-18.619-18.488-33.381-22.143
			C448.414,439.303,450.105,437.57,453.476,438.362z"/>
		<path fill-rule="evenodd" clip-rule="evenodd" d="M567.07,329.102c9.43,0.639,21.469-1.33,29.13,1.079
			c-0.12,2.756-3.612,2.142-6.474,2.158c-4.363-3.907-15.058,0.001-22.656-0.671C567.07,331.307,567.07,329.461,567.07,329.102z"/>
		<path fill-rule="evenodd" clip-rule="evenodd" fill="#F2F2F2" d="M723.507,388.439c2.288,25.306,1.098,56.478,0,81.994
			c0.198,0.918-0.42,1.018-1.078,1.079C722.666,443.7,724.166,417.148,723.507,388.439z"/>
		<path fill-rule="evenodd" clip-rule="evenodd" fill="#F2F2F2" d="M281.169,513.589c0-5.754,0-11.509,0-17.262"/>
		<path fill-rule="evenodd" clip-rule="evenodd" fill="#CACACA" d="M290.879,306.445c0-2.518,0-5.035,0-7.552
			c0-6.833,0-13.666,0-20.499c0-3.956,0-7.912,0-11.867"/>
		<path fill-rule="evenodd" clip-rule="evenodd" d="M635.04,334.496c0-8.271,0-16.543,0-24.814"/>
		<path fill-rule="evenodd" clip-rule="evenodd" d="M417.149,277.339c-12.813,8.123-28.418-4.375-29.453-18.119
			c6.411-3.424,19.926,2.963,24.544,8.053C414.242,270.253,411.969,277.616,417.149,277.339z"/>
		<path fill-rule="evenodd" clip-rule="evenodd" d="M503.417,288.104c-2.958-4.594-7.052-8.052-8.631-14.025
			c6.924,2.472,8.56,9.664,14.025,14.025c13.28,10.599,32.347,14.519,51.786,19.42c-19.752,2.486-36.975-6.897-50.707-14.025
			C508.097,291.335,506.993,288.483,503.417,288.104z"/>
		<path fill-rule="evenodd" clip-rule="evenodd" d="M567.07,333.417c-15.551-2.07-32.227-3.017-36.682-16.183
			c9.335,6.848,20.555,11.812,36.682,11.868c0,0.359,0,0.719,0,1.079c7.599,0.673,18.293-1.75,22.656,2.158
			c-3.742-0.865-4.146,1.607-7.552,1.079C577.14,333.417,572.105,333.417,567.07,333.417z"/>
		<path fill-rule="evenodd" clip-rule="evenodd" d="M577.859,348.521c-16.801-2.979-33.612-5.946-40.997-18.341
			c15.773,9.76,36.361,14.705,59.338,17.262c-0.135,2.382-4.577,0.458-6.474,1.079C585.771,348.521,581.815,348.521,577.859,348.521
			z"/>
		<path fill-rule="evenodd" clip-rule="evenodd" d="M599.437,365.783c-13.605-1.138-24.894-4.595-35.603-8.631
			c5.57,12.412,18.739,17.223,30.208,23.735c-13.629-1.12-30.912-7.924-32.366-24.814c-4.466-4.165-12.027-5.234-12.946-12.947
			c15.869,10.744,35.422,17.803,58.26,21.578C606.524,367.116,601.672,365.142,599.437,365.783z"/>
	</g>
	<path fill-rule="evenodd" clip-rule="evenodd" fill="#FFFFFF" d="M550.5,194.5c0.414,0.762-0.425,2.219,0,3
		c1.53,2.815,0.703,5.504,0.25,8.5c-0.148,0.98,0.147,2.026,0,3C551.414,204.606,552.765,198.665,550.5,194.5z"/>
	<path fill-rule="evenodd" clip-rule="evenodd" fill="#FFFFFF" d="M541,191.75c0.469,0.638-0.485,2.341,0,3
		c2.358,3.205,2.604,6.433,2,10.25c-0.155,0.979,0.154,2.028,0,3C543.834,202.736,544.31,196.248,541,191.75z"/>
</g>
<g id="Layer_3">
</g>
</svg>
