<?xml version="1.0" encoding="utf-8"?>
<!-- Generator: Adobe Illustrator 15.1.0, SVG Export Plug-In . SVG Version: 6.00 Build 0)  -->
<!DOCTYPE svg PUBLIC "-//W3C//DTD SVG 1.1//EN" "http://www.w3.org/Graphics/SVG/1.1/DTD/svg11.dtd">
<svg version="1.1" xmlns="http://www.w3.org/2000/svg" xmlns:xlink="http://www.w3.org/1999/xlink" x="0px" y="0px" width="800px"
	 height="800px" viewBox="0 0 800 800" enable-background="new 0 0 800 800" xml:space="preserve">
<g id="Layer_2">
	<path fill-rule="evenodd" clip-rule="evenodd" fill="#FFFFFF" d="M261.146,553.489c-8.323,10.584,0.989-3.976,8.24,11.979
		c77.364-60.51,181.451-91.797,277.187-0.093C777,184,670.335,650.439,670.335,650.439s40.999-73.772,43.999-109.106
		c8.095-33.407,10.827-89.24,13-130.237c1.249-23.574-3.901-62.59-10.709-84.938c-5.552-18.225-34.958-90.916-80.692-117.813
		c-9.99-5.875-43.018-17.276-43.018-17.276l-310.709,8.157l-17.268,24.979c0,0-0.125,15.375,0,20.499
		c0.587,23.982,5.982,55.27,5.982,55.27s-6.991-6.17-2.562,21.331c4.903,12.278,17.66,0.787,11.684,11.868
		c-6.079,11.271-6.473,28.433-6.473,28.433s-10.858,41.548-18.341,53.562c-17.753,28.503-5.346,17.855-66.978,71.086
		C232,454.251,329.75,466.25,261.146,553.489z"/>
	<path fill-rule="evenodd" clip-rule="evenodd" fill="#FFFFFF" d="M261.146,553.489"/>
	<path fill-rule="evenodd" clip-rule="evenodd" fill="#FFFFFF" d="M255.228,415.164c-17.753,28.503-33.195,47.178-70.69,69.162"/>
</g>
<g id="Layer_1">
	<g>
		<path fill-rule="evenodd" clip-rule="evenodd" fill="none" stroke="#000000" stroke-miterlimit="10" d="M293.036,371.717"/>
		<path fill-rule="evenodd" clip-rule="evenodd" fill="none" stroke="#000000" stroke-miterlimit="10" d="M289.8,392.215
			c-1.604-0.913-1.562-3.474-2.158-5.394"/>
		<path fill-rule="evenodd" clip-rule="evenodd" fill="#F2F2F2" d="M728.901,411.096c1.795,4.344,1.795,16.154,0,20.499
			C728.901,424.762,728.901,417.928,728.901,411.096z"/>
		<path fill-rule="evenodd" clip-rule="evenodd" fill="#363636" d="M395.53,418.647c5.754,0,11.507,0,17.262,0"/>
		<path fill-rule="evenodd" clip-rule="evenodd" d="M545.493,392.755c-10.904-7.795-19.754-17.647-28.051-28.051
			c9.697,8.643,16.854,19.828,28.051,26.972C545.493,392.035,545.493,392.396,545.493,392.755z"/>
		<path fill-rule="evenodd" clip-rule="evenodd" d="M553.045,206.11c16.879,3.45,39.939,10.253,57.181,15.104
			c3.954,1.113,15.671,6.124,19.42,5.395c12.99-2.527,6.215-17.369,0-23.735c-16.018-16.407-51.311-35.13-75.521-42.076
			c-28.393-8.145-77.213-11.39-115.439-9.71c-80.785,3.552-149.608,17.346-172.62,69.048c0,0.719,0,1.438,0,2.158
			c-5.056,2.772-1.274-7.148,0-10.789c3.463-9.896,17.127-24.391,24.814-30.208c34.083-25.798,127.986-39.5,195.276-34.524
			c23.016,1.702,45.364,2.653,64.221,7.562c51.219,13.333,95.374,53.771,124.582,89.537c36.279,44.426,54.875,92.854,53.943,167.226
			c0,6.832,0,13.666,0,20.499c-2.126,12.258-2.016,26.753-4.315,38.839c-0.359,0-0.72,0-1.079,0c1.098-25.517,2.288-56.688,0-81.994
			c-2.357-73.883-30.487-121.993-67.969-160.752c-3.145-4.048-6.741-7.644-10.788-10.789c-0.604-1.554-1.683-2.632-3.237-3.237
			c-0.672,5.893-3.12,17.639-10.788,17.262c17.063,37.958,49.375,70.02,51.785,126.228c-5.396,13.709-47.334,25.665-51.785,6.474
			c-2.43-10.475,7.021-15.767,4.315-29.13c0-24.814,0.354-15.479,0-24.814c-0.996-36.765-12.717-62.804-28.051-85.231
			c-18.563-3.734-34.769-9.825-53.944-12.947c-5.067-1.111-2.874,5.038-7.552,4.315c-0.804-3.321,2.962-2.073,2.157-5.394
			c-6.62-1.945-3.464,5.886-8.631,5.394c-0.782-3.3,1.862-3.173,1.079-6.473c-1.438,0-2.877,0-4.315,0
			c-4.498-1.659-6.91-1.289-10.789,0c-20.082,9.797-54.782,27.563-43.154,58.259c3.825,10.1,12.901,14.378,21.577,21.578
			c1.56,3.116,5.188,4.163,7.552,6.473c1.5,5.334,7.251,6.414,10.789,9.71c-2.035,1.919-4.775,3.135-4.315,7.552
			c15.135,42.764,44.188,71.61,76.6,97.099c0.206,0.874,1.082,1.076,1.079,2.158c-19.336-9.075-33.805-23.016-47.471-37.761
			c10.937,22.148,26.683,39.488,45.313,53.943c-0.576,1.555-1.608-1.262,1.078,3.237c-17.296-11.833-33.122-25.137-48.549-38.84
			c0-0.359,0-0.72,0-1.079c-11.196-7.144-18.354-18.329-28.051-26.972c-19.087-25.506-39.779-49.408-46.392-87.389
			c0-3.597,0-7.192,0-10.789c0.877-9.553,4.279-16.579,7.552-23.735c10.518-17.219,37.814-43.49,62.575-37.761L553.045,206.11z"/>
		<path fill-rule="evenodd" clip-rule="evenodd" d="M610.5,222.667c3.954,1.113,16.084,5.896,19.833,5.167
			c12.99-2.527,7.049-18.301,0.834-24.667c-16.018-16.407-52.832-35.424-77.043-42.37c-28.393-8.145-77.213-11.39-115.439-9.71
			c-80.785,3.552-149.608,17.346-172.62,69.048c0.719,0,1.438,0,2.158,0c13.933-11.428,14.527,25.24,26.972,35.603
			C303,254.125,313.25,256,319.5,263.5c7.75-5.545,22.123-23.577,22.123-23.577c4.127-6.923,43.593-27.313,65.877-15.411
			c6.204,5.304,10.838,14.445,18.238,17.889c11.982,5.575,41.168,6.543,52.864,0.391c19.21-10.104,37.97-42.188,62.73-36.458
			L610.5,222.667z"/>
		<path fill-rule="evenodd" clip-rule="evenodd" d="M468,410c-17.793,2.045-34.668,8.304-55.208,8.62c-5.755,0-11.508,0-17.262,0
			c-19.368-0.771-35.17-5.106-44.234-16.181c-9.236,7.665-15.201,18.602-19.42,31.283c7.971,5.655,17.716,20.69,30.208,22.653
			c9.671,1.519,27.286-4.674,43.155-5.395c16.178-0.735,33.328-0.215,46.392,1.079c1.438,0,2.878,0,4.315,0
			c0.334,1.465,2.702,0.896,4.315,1.079c-2.212,3.182-11.813-1.024-14.025,2.157c-12.23,0.716-27.325-1.433-37.76,1.079
			c-14.338-0.672-25.15,2.182-37.761,3.235c-4.675,0-9.35,0-14.025,0c-7.219-8.604-20.027-11.617-26.972-20.495
			c-4.215,9.689-2.521,29.001-4.315,37.756c-13.471-4.511-14.815-21.145-22.656-31.283c-3.694-8.533-7.848-16.605-11.868-24.811
			c-1.192-4.562-2.659-8.849-4.315-12.945c-1.116-4.638-1.952-9.555-3.237-14.023c-4.419-0.104-8.482,0.149-8.631,4.315
			c-8.649,13.645-17.944,26.646-28.051,38.833c-6.564,5.662-12.677,11.776-18.341,18.339c-4.885,4.825-10.972,8.448-15.104,14.023
			c-1.902,0.975-3.341,2.413-4.315,4.314c32.105-11.677,76.018-5.711,77.679,28.047c0.854,17.377-9.303,31.227-18.341,43.149
			c-0.874,0.205-1.075,1.082-2.158,1.079c5.778-10.044,12.627-19.017,15.104-32.361c1.793-3.274,1.793-13.986,0-17.26
			c-6.079-29.947-51.831-29.81-77.679-17.261c-10.854,5.271-17.094,14.737-28.051,16.182c-4.55,0.184,0.019-1.657,0-3.235
			c-3.13,0.824-6.206,1.705-7.552,4.314c-3.6-0.004-3.683,3.508-7.552,3.236c20.584-15.017,46.647-24.556,61.496-45.307
			c3.84-4.072,9.498-6.325,11.868-11.866c34.555-29.813,48.566-80.169,57.18-135.92c1.797-10.795,1.797-29.117,0-39.913
			c-0.797-22.215-2.895-43.131-22.656-46.385c13.933-11.427,26.889,18.271,26.972,35.598c-0.517,12.743,5.143,19.309,4.315,32.362
			c8.358-9.622,14.588-21.371,23.735-30.204l16.038-18.83c13.909-15.479,46.909-27.589,69.194-15.689
			c5.304,6.204,11.057,11.957,17.262,17.26c2.063,2.971,4.581,5.488,7.552,7.55c24.911,27.231,41.484,62.799,52.865,103.558
			c0,1.798,0,3.596,0,5.394c-18.951-50.45-41.76-97.041-78.758-129.447c-25.446-10.619-54.775,1.398-66.89,17.26
			c-4.554,3.716-7.817,8.725-11.868,12.945c-6.478,6.108-12.091,13.082-17.262,20.496c-2.438,3.316-5.453,6.054-6.473,10.788
			c-12.775,24.724-21.538,58.872-17.262,97.085c0.596,1.92,0.554,4.48,2.158,5.393c2.707-8.745,3.245-15.479,3.236-20.496
			c0-0.36,0-0.719,0-1.079c3.17-9.415,3.338-21.833,11.868-25.889c5.158,16.73,2.906,35.532,18.341,39.913
			c10.634,3.018,28.287-9.309,35.603,5.394c-0.081,3.875,0.873,8.785-2.158,9.708c1.048,4.346,4.713,6.074,7.552,8.63
			c34.78,13.071,80.722,1.715,117.598-2.157c3.633-0.683,5.532-3.099,10.788-2.157c26.134,2.276,47.658,9.161,63.654,21.574
			c0.478,0.961,0.947,1.929,2.157,2.158c-8.77,0.487-17.02-6.039-26.972-7.751C522.079,407.291,484.686,407.098,468,410z
			 M281.169,383.022c-0.896,2.7-2.956,4.235-3.236,7.551c1.567-0.59,5.576,1.261,5.394-1.079
			C280.272,389.672,284.224,382.846,281.169,383.022z"/>
		<path fill-rule="evenodd" clip-rule="evenodd" d="M527.152,220.135c-16.938,8.955-29.938,21.847-35.603,42.076
			c-2.862-0.344,1.009,6.044-3.237,4.316c0.012-2.866-0.407-6.162,1.079-7.552c5.77-19.764,18.089-32.978,35.603-40.997
			c1.079,0,2.158,0,3.237,0C528.234,219.06,527.357,219.261,527.152,220.135z"/>
		<path fill-rule="evenodd" clip-rule="evenodd" d="M584.333,303.208c-6.129,1.694-7.369-0.289-14.025,0
			c-29.303-6.661-42.816-29.11-74.442-33.445c-1.286-2.978-3.063-3.787-1.079-7.552c12.944-21.579,31.047-38.839,59.338-44.233
			c3.626-0.605,9.126-0.605,11.868,0c18.588,6.585,30.721,19.625,33.444,42.076c0.594,5.385,0.688,9.509,0,14.025
			c-1.698,10.169-6.097,17.638-11.867,23.735c23.301-7.996,22.167-51.17,5.395-65.812c2.472-3.772,2.998,3.374,5.394,3.237
			c10.667,11.264,17.564,38.718,5.395,52.865C599.741,292.767,590.261,301.57,584.333,303.208z M523.916,248.186
			c11.703,0.468,23.6-7.982,30.208-16.183C537.334,230.676,527.98,236.787,523.916,248.186z"/>
		<path fill-rule="evenodd" clip-rule="evenodd" d="M592.964,232.002c-0.483-2.119-6.36-6.471-4.315-7.552
			c3.78,3.052,8.41,6.929,10.504,11.667"/>
		<path fill-rule="evenodd" clip-rule="evenodd" d="M274.696,325.865c-10.663-3.434-7.77-13.571-8.631-22.656
			c-0.564-5.949-3.638-12.469-4.315-19.42c-1.247-12.776,4.094-25.937,3.236-35.603c-0.823-9.279-9.447-11.981-11.868-18.341
			c4.432,0.243,6.674,2.676,8.631,5.395c2.672-1.644,1.928-6.703,6.473-6.473c0.767,5.442-3.318,6.032-2.158,11.868
			c4.158,3.754,9.947,5.876,14.025,9.71c-0.207-6.627-4.245-9.422-5.395-15.104c11.97,5.651,11.855,23.389,14.025,38.839
			c0,2.158,0,4.315,0,6.473c0,5.395,0,10.789,0,16.184c0,1.079,0,2.158,0,3.236c-0.687,9.742-2.352,18.507-6.473,24.814
			c-4.322,1.949,0.296-0.331,0-3.236c2.603-5.668,2.211-14.332,2.158-22.656c-12.845-1.819-24.385,16.157-8.631,23.735
			c0.029,1.049,1.32,0.837,2.158,1.079C277.461,325.034,276.552,325.923,274.696,325.865z M270.38,255.738
			c-3.471,0.718-5.071,9.478,0,9.71C274.575,266.091,275.495,254.813,270.38,255.738z"/>
		<path fill-rule="evenodd" clip-rule="evenodd" d="M320.009,271.921c15.554-17.642,44.941-19.575,57.18,0
			c9.747,15.591,14.454,34.217,26.972,49.628c12.852,15.823,25.146,25.242,47.47,29.129c0.942,1.902,3.611,3.341,0,4.315
			c-31.305-4.364-50.299-23.236-63.653-47.47c-9.57-17.367-12.424-50.049-39.918-47.471c-12.313,1.155-19.353,13.161-29.129,19.42
			c-4.048,1.732-7.645,9.583-10.789,8.631c0.658-0.061,1.277-0.161,1.079-1.079c1.005-2.951,3.311-4.601,4.315-7.552
			C316.651,277.915,317.698,274.285,320.009,271.921z"/>
		<path fill-rule="evenodd" clip-rule="evenodd" fill="#F2F2F2" d="M419.265,279.473c-7.168,2.115-14.599-4.808-17.262-10.789
			C409.524,270.513,415.667,273.721,419.265,279.473z"/>
		<path fill-rule="evenodd" clip-rule="evenodd" d="M267.144,367.941c-7.082,5.146-11.249,13.206-18.341,18.341
			c-2.22-6.588,20.106-23.15,25.893-33.445C277.625,359.028,268.348,362.292,267.144,367.941z"/>
		<path fill-rule="evenodd" clip-rule="evenodd" d="M493.707,365.783c24.446,24.104,55.706,41.393,81.994,63.653
			c-4.315,0-2.306-1.031-4.315,0c-12.899-7.104-25.107-17.054-39.918-28.051C517.926,391.331,497.569,380.907,493.707,365.783z"/>
		<path fill-rule="evenodd" clip-rule="evenodd" d="M249.882,403.544c6.417-5.452,10.954-12.781,14.025-21.578
			c0.696,17.243-15.174,27.259-25.893,36.681c-0.951-3.145,6.898-6.74,8.631-10.788
			C246.963,405.659,249.564,405.743,249.882,403.544z"/>
		<path fill-rule="evenodd" clip-rule="evenodd" d="M609.146,427.279c-30.771,35.4-56.933,75.408-62.574,135.938
			c-0.359,0-0.72,0-1.079,0c0-3.596,0-7.192,0-10.789c4.45-52.37,29.813-83.633,52.34-117.928
			c1.856,0.058,23.501-26.641,33.167-34.193c10.285-7.552,15.136-12.998,25.617-17.262c0.918-0.198,1.018,0.42,1.079,1.079
			c-14.797,9.658-28.282,20.628-39.919,33.445"/>
		<path fill-rule="evenodd" clip-rule="evenodd" d="M158.178,500.643c-1.04,5.073-7.239,4.988-9.71,8.631
			C146.441,505.41,154.616,502.505,158.178,500.643z"/>
		<path fill-rule="evenodd" clip-rule="evenodd" d="M409.555,503.879c5.755,0,11.508,0,17.263,0
			c48.581,5.002,104.744,45.26,101.414,44.233c-24.322-19.191-52.464-34.564-91.704-38.839c-9.361-1.797-26.242-1.797-35.604,0
			c-57.584,6.788-95.107,33.638-134.859,58.259C303.623,536.043,347.83,511.201,409.555,503.879z"/>
		<path fill-rule="evenodd" clip-rule="evenodd" d="M524.994,217.978c0.03-1.05,1.32-0.837,2.158-1.079
			c2.961-0.159,5.563-0.201,3.236,2.158c-0.867,0.571-1.751,1.126-3.236,1.079"/>
		<path fill-rule="evenodd" clip-rule="evenodd" d="M255.276,221.214c2.689,2.705,7.729,3.06,10.789,5.395
			c-2.329,2.951-7.468-0.372-9.71-1.079c-0.976-1.9-3.972-1.783-4.315-4.315C253.118,221.214,254.197,221.214,255.276,221.214z"/>
		<path fill-rule="evenodd" clip-rule="evenodd" d="M599.437,274.079c0-4.675,0-9.35,0-14.025"/>
		<path fill-rule="evenodd" clip-rule="evenodd" d="M438.685,293.499c-10.622,9.86-31.703,1.605-37.761-6.473
			c-1.993-2.682-1.565-5.01-4.777-6.474c0-1.438-1.696-3.956-1.696-5.394c9.659,6.165,13.678,17.969,29.129,18.341"/>
		<path fill-rule="evenodd" clip-rule="evenodd" fill="#9D9D9D" d="M434.369,293.499"/>
		<path fill-rule="evenodd" clip-rule="evenodd" fill="#9D9D9D" d="M423.58,293.499"/>
		<path fill-rule="evenodd" clip-rule="evenodd" fill="#363636" d="M288.721,296.735c0-5.395,0-10.789,0-16.184"/>
		<path fill-rule="evenodd" clip-rule="evenodd" d="M584.333,303.208"/>
		<path fill-rule="evenodd" clip-rule="evenodd" d="M570.308,303.208"/>
		<path fill-rule="evenodd" clip-rule="evenodd" fill="#CACACA" d="M567.07,333.417c5.035,0,10.069,0,15.104,0"/>
		<path fill-rule="evenodd" clip-rule="evenodd" d="M264.986,333.417c7.318,0.484,10.778-2.888,16.183-4.315
			c-0.32,6.872-7.054,7.331-14.025,7.552c-3.956,0-7.912,0-11.867,0c-2.6,0.441-2.346-1.97-5.395-1.079
			C252.447,332.386,262.42,336.605,264.986,333.417z"/>
		<path fill-rule="evenodd" clip-rule="evenodd" fill="#363636" d="M255.276,336.653c3.956,0,7.912,0,11.867,0"/>
		<path fill-rule="evenodd" clip-rule="evenodd" d="M241.251,365.783c13.225-8.713,25.295-18.579,37.76-28.051
			c-7.151,14.426-22.864,20.291-35.603,29.129C242.571,366.62,241.28,366.833,241.251,365.783z"/>
		<path fill-rule="evenodd" clip-rule="evenodd" d="M577.859,348.521c3.956,0,7.911,0,11.867,0
			C588.216,350.309,579.37,350.309,577.859,348.521z"/>
		<path fill-rule="evenodd" clip-rule="evenodd" d="M494.786,459.645c-19.685-11.364-2.327-48.966,18.341-43.154
			c-6.688,3.021-13.349,6.07-17.262,11.867C488.537,435.527,487.648,451.67,494.786,459.645z"/>
		<path fill-rule="evenodd" clip-rule="evenodd" d="M467.814,454.219c14.711,3.27,23.782,12.179,32.366,21.574
			c-0.441,2.599,1.97,2.346,1.079,5.394c-11.894-8.246-20.46-19.816-36.683-23.732C462.253,455.227,464.111,453.369,467.814,454.219
			z"/>
		<path fill-rule="evenodd" clip-rule="evenodd" fill="#363636" d="M356.69,459.645c4.675,0,9.35,0,14.025,0"/>
		<path fill-rule="evenodd" clip-rule="evenodd" d="M567.07,329.102c9.43,0.639,21.469-1.33,29.13,1.079
			c-0.12,2.756-3.612,2.142-6.474,2.158c-4.363-3.907-15.058,0.001-22.656-0.671C567.07,331.307,567.07,329.461,567.07,329.102z"/>
		<path fill-rule="evenodd" clip-rule="evenodd" fill="#F2F2F2" d="M723.507,388.439c2.288,25.306,1.098,56.478,0,81.994
			c0.198,0.918-0.42,1.018-1.078,1.079C722.666,443.7,724.166,417.148,723.507,388.439z"/>
		<path fill-rule="evenodd" clip-rule="evenodd" fill="#F2F2F2" d="M281.169,513.589c0-5.754,0-11.509,0-17.262"/>
		<path fill-rule="evenodd" clip-rule="evenodd" fill="#CACACA" d="M290.879,306.445c0-2.518,0-5.035,0-7.552
			c0-6.833,0-13.666,0-20.499c0-3.956,0-7.912,0-11.867"/>
		<path fill-rule="evenodd" clip-rule="evenodd" d="M635.04,334.496c0-8.271,0-16.543,0-24.814"/>
		<path fill-rule="evenodd" clip-rule="evenodd" d="M427.896,281.631c-14.08,8.706-31.229-4.689-32.366-19.42
			c7.045-3.67,21.897,3.176,26.972,8.631C424.702,274.036,422.204,281.928,427.896,281.631z M402.003,268.685
			c2.663,5.981,10.094,12.904,17.262,10.789C415.667,273.721,409.524,270.513,402.003,268.685z"/>
		<path fill-rule="evenodd" clip-rule="evenodd" d="M503.417,288.104c-2.958-4.594-7.052-8.052-8.631-14.025
			c6.924,2.472,8.56,9.664,14.025,14.025c13.28,10.599,32.347,14.519,51.786,19.42c-19.752,2.486-36.975-6.897-50.707-14.025
			C508.097,291.335,506.993,288.483,503.417,288.104z"/>
		<path fill-rule="evenodd" clip-rule="evenodd" d="M567.07,333.417c-15.551-2.07-32.227-3.017-36.682-16.183
			c9.335,6.848,20.555,11.812,36.682,11.868c0,0.359,0,0.719,0,1.079c7.599,0.673,18.293-1.75,22.656,2.158
			c-3.742-0.865-4.146,1.607-7.552,1.079C577.14,333.417,572.105,333.417,567.07,333.417z"/>
		<path fill-rule="evenodd" clip-rule="evenodd" d="M577.859,348.521c-16.801-2.979-33.612-5.946-40.997-18.341
			c15.773,9.76,36.361,14.705,59.338,17.262c-0.135,2.382-4.577,0.458-6.474,1.079C585.771,348.521,581.815,348.521,577.859,348.521
			z"/>
		<path fill-rule="evenodd" clip-rule="evenodd" d="M599.437,365.783c-13.605-1.138-24.894-4.595-35.603-8.631
			c5.57,12.412,18.739,17.223,30.208,23.735c-13.629-1.12-30.912-7.924-32.366-24.814c-4.466-4.165-12.027-5.234-12.946-12.947
			c15.869,10.744,35.422,17.803,58.26,21.578C606.524,367.116,601.672,365.142,599.437,365.783z"/>
	</g>
	<path fill-rule="evenodd" clip-rule="evenodd" fill="#FFFFFF" d="M550.5,194.5c0.414,0.762-0.425,2.219,0,3
		c1.53,2.815,0.703,5.504,0.25,8.5c-0.148,0.98,0.147,2.026,0,3C551.414,204.606,552.765,198.665,550.5,194.5z"/>
	<path fill-rule="evenodd" clip-rule="evenodd" fill="#FFFFFF" d="M541,191.75c0.469,0.638-0.485,2.341,0,3
		c2.358,3.205,2.604,6.433,2,10.25c-0.155,0.979,0.154,2.028,0,3C543.834,202.736,544.31,196.248,541,191.75z"/>
</g>
<g id="Layer_3">
</g>
</svg>
